<svg xmlns="http://www.w3.org/2000/svg" width="1400" height="1200" viewBox="0 0 1400 1200">
  <defs>
    <radialGradient id="g" cx="50%" cy="45%" r="60%">
      <stop offset="0" stop-color="#ff1b1b" stop-opacity=".35"/>
      <stop offset=".55" stop-color="#ff1b1b" stop-opacity=".12"/>
      <stop offset="1" stop-color="#080809" stop-opacity="0"/>
    </radialGradient>
    <linearGradient id="m" x1="0" x2="1">
      <stop offset="0" stop-color="#ffffff" stop-opacity=".18"/>
      <stop offset=".45" stop-color="#ffffff" stop-opacity=".62"/>
      <stop offset="1" stop-color="#ff1b1b" stop-opacity=".95"/>
    </linearGradient>
  </defs>
  <rect width="1400" height="1200" fill="none"/>
  <circle cx="720" cy="590" r="520" fill="url(#g)"/>
  <circle cx="710" cy="580" r="360" fill="none" stroke="#fff" stroke-opacity=".06" stroke-width="2"/>
  <circle cx="710" cy="580" r="250" fill="none" stroke="#ff1b1b" stroke-opacity=".18" stroke-width="2"/>
  <path d="M245 880 C410 610, 635 450, 1110 300" fill="none" stroke="url(#m)" stroke-width="8" stroke-linecap="round" opacity=".45"/>
<g transform="translate(260 285)" fill="none" stroke-linecap="round" stroke-linejoin="round">
    <circle cx="450" cy="215" r="62" stroke="#fff" stroke-opacity=".72" stroke-width="28"/>
    <path d="M450 292 C330 370, 285 505, 235 695" stroke="url(#m)" stroke-width="36"/>
    <path d="M450 305 C590 380, 650 520, 770 705" stroke="#ff1b1b" stroke-opacity=".72" stroke-width="36"/>
    <path d="M245 695 C415 620, 595 620, 775 705" stroke="#fff" stroke-opacity=".24" stroke-width="28"/>
    <path d="M385 442 L265 360 M525 440 L655 350" stroke="#fff" stroke-opacity=".48" stroke-width="30"/>
  </g><text x="700" y="1080" text-anchor="middle" fill="#fff" fill-opacity=".12" font-family="Arial, sans-serif" font-size="78" font-weight="900" letter-spacing="10">CORE MIND</text>
</svg>